<svg xmlns="http://www.w3.org/2000/svg" id="Capa_1" style="" viewBox="0 0 49.655 49.654" x="0px" y="0px" width="49.655px" height="49.654px" xmlns:xml="http://www.w3.org/XML/1998/namespace" xml:space="preserve" version="1.1"><g><g><path style="fill: hsla(180, 100%, 42%, 1);" d="M 24.827 0 C 11.138 0 0 11.137 0 24.826 c 0 13.688 11.137 24.828 24.826 24.828 c 13.688 0 24.827 -11.14 24.827 -24.828 C 49.653 11.137 38.516 0 24.827 0 Z M 38.543 23.011 L 38.543 23.011 l -7.188 5.201 l 2.769 8.46 c 0.044 0.133 0.067 0.273 0.067 0.417 c 0 0.739 -0.6 1.339 -1.339 1.339 c -0.293 0 -0.562 -0.094 -0.782 -0.252 l -7.244 -5.24 l -7.243 5.24 c -0.22 0.158 -0.49 0.252 -0.783 0.252 c -0.74 0 -1.339 -0.599 -1.339 -1.339 c 0 -0.146 0.024 -0.284 0.068 -0.417 l 2.769 -8.46 l -7.187 -5.2 v -0.001 c -0.336 -0.242 -0.554 -0.637 -0.554 -1.083 c 0 -0.739 0.598 -1.337 1.338 -1.337 h 8.897 l 2.755 -8.421 c 0.168 -0.547 0.677 -0.945 1.28 -0.945 c 0.603 0 1.112 0.398 1.28 0.945 l 2.754 8.421 h 8.896 c 0.739 0 1.338 0.598 1.338 1.337 C 39.096 22.374 38.878 22.769 38.543 23.011 Z" /></g></g><g></g><g></g><g></g><g></g><g></g><g></g><g></g><g></g><g></g><g></g><g></g><g></g><g></g><g></g><g></g></svg>